<svg class="animated" id="freepik_stories-workout" xmlns="http://www.w3.org/2000/svg" viewBox="0 0 500 500" version="1.1"><style>@keyframes slideLeft{0%{opacity:0;transform:translateX(-30px)}to{opacity:1;transform:translateX(0)}}@keyframes floating{0%,to{opacity:1;transform:translateY(0)}50%{transform:translateY(-10px)}}svg#freepik_stories-workout:not(.animated) .animable{opacity:0}</style><g id="freepik--background-complete--inject-18" class="animable" style="transform-origin:250px 228.53px"><path style="fill:#ebebeb;transform-origin:250px 382.525px" id="eldikhnye7z5b" class="animable" d="M0 382.4h500v.25H0z"/><path style="fill:#ebebeb;transform-origin:417.23px 393.165px" id="elmdkws5vgxc" class="animable" d="M400.67 393.04h33.12v.25h-33.12z"/><path style="fill:#ebebeb;transform-origin:308.725px 393.045px" id="el81bpvbn1dly" class="animable" d="M304.38 392.92h8.69v.25h-8.69z"/><path style="fill:#ebebeb;transform-origin:440.305px 398.615px" id="elxtuomxjrvt" class="animable" d="M430.71 398.49h19.19v.25h-19.19z"/><path style="fill:#ebebeb;transform-origin:93.005px 401.935px" id="el1uissh4hisc" class="animable" d="M71.41 401.81h43.19v.25H71.41z"/><path style="fill:#ebebeb;transform-origin:107.725px 391.015px" id="elxeuiukzlwtg" class="animable" d="M104.56 390.89h6.33v.25h-6.33z"/><path style="fill:#ebebeb;transform-origin:218px 392.085px" id="elr18bfalowq" class="animable" d="M187.55 391.96h60.9v.25h-60.9z"/><path d="M237 337.8H43.91a5.71 5.71 0 0 1-5.7-5.71V60.66a5.71 5.71 0 0 1 5.7-5.66H237a5.71 5.71 0 0 1 5.71 5.71v271.38a5.71 5.71 0 0 1-5.71 5.71ZM43.91 55.2a5.46 5.46 0 0 0-5.45 5.46v271.43a5.46 5.46 0 0 0 5.45 5.46H237a5.47 5.47 0 0 0 5.46-5.46V60.66A5.47 5.47 0 0 0 237 55.2Z" style="fill:#ebebeb;transform-origin:140.46px 196.4px" id="el3fhbxs290ov" class="animable"/><path d="M453.31 337.8h-193.1a5.72 5.72 0 0 1-5.71-5.71V60.66a5.72 5.72 0 0 1 5.71-5.66h193.1a5.71 5.71 0 0 1 5.69 5.66v271.43a5.71 5.71 0 0 1-5.69 5.71ZM260.21 55.2a5.47 5.47 0 0 0-5.46 5.46v271.43a5.47 5.47 0 0 0 5.46 5.46h193.1a5.47 5.47 0 0 0 5.46-5.46V60.66a5.47 5.47 0 0 0-5.46-5.46Z" style="fill:#ebebeb;transform-origin:356.75px 196.4px" id="elhsquxdgoj7a" class="animable"/><path d="M74.75 352.7a19.15 19.15 0 0 1-.82-5.11c0-6.78 5.44-8.17 13.61-8.17s13.61 1.39 13.61 8.17a18 18 0 0 1-.6 4.32 20.41 20.41 0 0 0-25.8.79Zm29.59 2.95a28.21 28.21 0 0 0 1.31-8.06C105.65 333 93 333 87.54 333s-18.11 0-18.11 14.61a29.27 29.27 0 0 0 1.67 9.19 20.53 20.53 0 0 0 2.21 25.62H103a20.48 20.48 0 0 0 1.37-26.75Z" style="fill:#e6e6e6;transform-origin:88.156px 357.71px" id="el0rsjwjajpky" class="animable"/><path d="M129.11 355a17.63 17.63 0 0 1-.75-4.71c0-6.24 5-7.52 12.55-7.52s12.54 1.28 12.54 7.52a16 16 0 0 1-.56 4 18.85 18.85 0 0 0-23.78.73Zm27.28 2.73a26.09 26.09 0 0 0 1.21-7.44c0-13.46-11.7-13.46-16.69-13.46s-16.7 0-16.7 13.46a27.15 27.15 0 0 0 1.54 8.48 18.94 18.94 0 0 0 2 23.61h27.34a18.88 18.88 0 0 0 1.26-24.65Z" style="fill:#e6e6e6;transform-origin:141.432px 359.605px" id="el2ax1or3diu" class="animable"/><path d="M183.48 357.34a15.73 15.73 0 0 1-.69-4.3c0-5.72 4.59-6.89 11.48-6.89s11.48 1.17 11.48 6.89a15.13 15.13 0 0 1-.51 3.64 17.23 17.23 0 0 0-21.76.66Zm25 2.5a23.78 23.78 0 0 0 1.11-6.8c0-12.32-10.71-12.32-15.28-12.32S179 340.72 179 353a25 25 0 0 0 1.41 7.75 17.34 17.34 0 0 0 1.86 21.61h25a17.29 17.29 0 0 0 1.15-22.56Z" style="fill:#e6e6e6;transform-origin:194.771px 361.54px" id="eluenguduoboc" class="animable"/><path d="M237.84 359.67a14.8 14.8 0 0 1-.62-3.91c0-5.19 4.16-6.25 10.41-6.25s10.42 1.06 10.42 6.25a13.88 13.88 0 0 1-.46 3.31 15.64 15.64 0 0 0-19.75.6Zm22.65 2.26a21.53 21.53 0 0 0 1-6.17c0-11.18-9.71-11.18-13.86-11.18s-13.86 0-13.86 11.18a22.61 22.61 0 0 0 1.28 7 15.71 15.71 0 0 0 1.69 19.6h22.7a15.69 15.69 0 0 0 1.05-20.47Z" style="fill:#e6e6e6;transform-origin:248.09px 363.47px" id="elk21taowsrbl" class="animable"/><path d="M289.78 362a12.89 12.89 0 0 1-.56-3.5c0-4.66 3.74-5.61 9.35-5.61s9.35.95 9.35 5.61a11.94 11.94 0 0 1-.42 3 14.06 14.06 0 0 0-17.72.54Zm20.33 2a19.4 19.4 0 0 0 .9-5.54c0-10-8.72-10-12.44-10s-12.44 0-12.44 10a20.09 20.09 0 0 0 1.15 6.31 14.12 14.12 0 0 0 1.51 17.6h20.38a14.09 14.09 0 0 0 .94-18.37Z" style="fill:#e6e6e6;transform-origin:298.98px 365.415px" id="el0r54c8obo3yl" class="animable"/><path style="fill:#f5f5f5;transform-origin:137.24px 180.775px" id="el5tijzc9cv6v" class="animable" d="M26.25 100.33h221.98v160.89H26.25z"/><path style="fill:#fafafa;transform-origin:166.11px 223.11px" id="el41xbcanfedg" class="animable" d="M84 185h164.22v76.22H84z"/><path style="fill:#e6e6e6;transform-origin:25.84px 180.775px;transform:rotate(180deg)" class="animable" d="M25.44 100.33h.8v160.89h-.8z" id="eleq31b8d607"/><path style="fill:#fff;transform-origin:95.46px 180.775px" id="el7qkdn27c9es" class="animable" d="M140.46 100.33H95.89L50.46 261.22h44.57l45.43-160.89z"/><path style="fill:#fff;transform-origin:132.085px 180.775px" id="el5gz4f3wtlmr" class="animable" d="M162.56 100.33h-15.52l-45.43 160.89h15.52l45.43-160.89z"/><path style="fill:#f5f5f5;transform-origin:363.57px 180.775px" id="elyv3t04cfb4" class="animable" d="M252.58 100.33h221.98v160.89H252.58z"/><path style="fill:#fafafa;transform-origin:375.09px 191.55px" id="elwcvi69npv" class="animable" d="M324.07 153.44h102.04v76.22H324.07z"/><path style="fill:#fafafa;transform-origin:461.885px 191.55px;transform:rotate(180deg)" class="animable" d="M449.22 153.44h25.33v76.22h-25.33z" id="elftq4ns3fw47"/><path style="fill:#e6e6e6;transform-origin:252.18px 180.775px;transform:rotate(180deg)" class="animable" d="M251.78 100.33h.8v160.89h-.8z" id="el70x7fnadbyp"/><path style="fill:#fff;transform-origin:309.775px 180.775px" id="eljivrzdlvmse" class="animable" d="M344.5 100.33h-24.01l-45.44 160.89h24.01l45.44-160.89z"/><path style="fill:#fff;transform-origin:340.25px 180.775px" id="elkdgr5t60wca" class="animable" d="M374.97 100.33h-24.01l-45.43 160.89h24.01l45.43-160.89z"/><path style="fill:#ebebeb;transform-origin:253.735px 288.005px" id="elqv0d8h0ou4" class="animable" d="M32.69 283.67h442.09v8.67H32.69z"/><path style="fill:#e0e0e0;transform-origin:37.025px 288.005px" id="elqg2yln7wkgb" class="animable" d="M32.69 283.67h8.67v8.67h-8.67z"/><path d="M353.84 307.44h1c20.31.52 38.39 17.1 40.62 37.48s-12.24 36.96-32.46 37.47h-1c-20.69 0-39.32-16.78-41.58-37.47s12.73-37.48 33.42-37.48Zm5.2 43.71a5.47 5.47 0 0 0 5.54-6.22 7.13 7.13 0 0 0-6.9-6.23 5.48 5.48 0 0 0-5.55 6.23 7.13 7.13 0 0 0 6.87 6.22Z" style="fill:#e0e0e0;transform-origin:357.941px 344.915px" id="elhb5iz3keq36" class="animable"/><path d="M354.65 307.45h1c20.7 0 39.31 16.79 41.58 37.49s-12.67 37.47-33.36 37.47h-1c-20.31-.51-38.39-17.09-40.63-37.46s12.21-36.95 32.41-37.5Zm5.76 43.7a5.47 5.47 0 0 0 5.54-6.22 7.13 7.13 0 0 0-6.95-6.23 5.48 5.48 0 0 0-5.54 6.23 7.13 7.13 0 0 0 6.95 6.22Z" style="fill:#f0f0f0;transform-origin:359.735px 344.93px" id="eltvl8u39nqx" class="animable"/><path d="M335.42 324.34a26.93 26.93 0 0 1 19.74-8.17c16.66 0 31.65 13.5 33.48 30.16a27.32 27.32 0 0 1-5.81 20.53 27.17 27.17 0 0 0 7.06-21.93c-1.83-16.67-16.81-30.17-33.47-30.17a26.79 26.79 0 0 0-21 9.58Z" style="fill:#e6e6e6;transform-origin:362.763px 340.808px" id="elnqyyca5sb1" class="animable"/><path d="M410.28 318.71h.82c17.26.44 32.62 14.53 34.52 31.84s-10.38 31.4-27.54 31.83h-.82c-17.58 0-33.4-14.26-35.33-31.84s10.77-31.83 28.35-31.83Zm4.42 37.14a4.66 4.66 0 0 0 4.71-5.29 6.07 6.07 0 0 0-5.87-5.29 4.65 4.65 0 0 0-4.71 5.29 6 6 0 0 0 5.87 5.29Z" style="fill:#e0e0e0;transform-origin:413.775px 350.545px" id="elm2f0lia71eh" class="animable"/><path d="M411 318.72h.82c17.59 0 33.4 14.26 35.33 31.85s-10.76 31.84-28.35 31.84h-.8c-17.26-.43-32.62-14.52-34.52-31.83s10.33-31.42 27.52-31.86Zm4.89 37.13a4.65 4.65 0 0 0 4.71-5.29 6.06 6.06 0 0 0-5.87-5.29 4.65 4.65 0 0 0-4.71 5.29 6.06 6.06 0 0 0 5.84 5.29Z" style="fill:#f5f5f5;transform-origin:415.315px 350.565px" id="elappxb8ebpf6" class="animable"/><path d="M394.63 333.06a22.89 22.89 0 0 1 16.77-6.93c14.16 0 26.89 11.47 28.45 25.62a23.26 23.26 0 0 1-4.94 17.45 23.08 23.08 0 0 0 6-18.64c-1.56-14.16-14.28-25.63-28.44-25.63a22.79 22.79 0 0 0-17.84 8.13Z" style="fill:#e6e6e6;transform-origin:417.862px 347.063px" id="elgc98stglzpa" class="animable"/></g><g id="freepik--Shadow--inject-18" class="animable" style="transform-origin:250px 416.24px"><ellipse id="freepik--path--inject-18" cx="250" cy="416.24" rx="193.89" ry="11.32" style="fill:#f5f5f5;transform-origin:250px 416.24px" class="animable"/></g><g id="freepik--Character--inject-18" class="animable" style="transform-origin:259.075px 273.536px;animation:1s 1 forwards cubic-bezier(.36,-.01,.5,1.38) slideLeft;animation-delay:0s"><path d="M235 199.68a7.2 7.2 0 0 0-9.94 2.17l-.22.35-.42.66-.5.74c-.33.51-.67 1-1 1.52-.7 1-1.41 2-2.15 3a64.92 64.92 0 0 1-4.61 5.55 34.84 34.84 0 0 1-5 4.49c-.43.32-.86.61-1.29.89-.34-.64-.68-1.41-1-2.22a58.08 58.08 0 0 1-2.16-7.09c-1.22-5-2.16-10.34-3.05-15.55v-.12a3.59 3.59 0 0 0-7.12.25 95.22 95.22 0 0 0-.2 17.06 55.74 55.74 0 0 0 1.36 8.9 27 27 0 0 0 1.65 4.85 17.71 17.71 0 0 0 1.53 2.71 11.82 11.82 0 0 0 2.86 2.93 9.82 9.82 0 0 0 5.2 1.85 10.11 10.11 0 0 0 2.74-.21 8.88 8.88 0 0 0 1.19-.33l.54-.19.31-.11a30.83 30.83 0 0 0 4.7-2.23 43.16 43.16 0 0 0 7.71-5.82 59.31 59.31 0 0 0 6.16-6.78c.92-1.19 1.81-2.4 2.65-3.64.42-.63.83-1.26 1.23-1.91l.59-1 .63-1.1a7.21 7.21 0 0 0-2.39-9.62Z" style="fill:#ce7a63;transform-origin:217.187px 211.844px" id="elcliie2hobx6" class="animable"/><path d="m202.79 195.75 5.58-5.83-11-2.84s-4.67 5.28-.34 9.91Z" style="fill:#ce7a63;transform-origin:201.78px 192.035px" id="elzrd150brw8" class="animable"/><path d="m203.65 201.47-7.16.46a1.84 1.84 0 0 1-2-1.86v-3.25a2.14 2.14 0 0 1 1.95-2.11l7.17-.46a1.83 1.83 0 0 1 1.95 1.86v3.25a2.13 2.13 0 0 1-1.91 2.11Z" style="fill:#263238;transform-origin:200.025px 198.092px" id="elohutn420ins" class="animable"/><path style="fill:#ce7a63;transform-origin:202.87px 186.94px" id="el4aihpvhjbpa" class="animable" d="m207.29 183.96-9.92.48v2.64l11 2.84-1.08-5.96z"/><path d="M224.71 202.28c-.34 9.36 2 30.94 18.83 74.55l52.64-3.83c-1.26-7.23-12.32-38.41-14-72.83-.22-4.33-4.33-8-9.08-8.25-3-.13-6.44-.2-9.78-.08a210.9 210.9 0 0 0-23.08 1.82 95.94 95.94 0 0 0-10.38 2.39 6.72 6.72 0 0 0-5.15 6.23Z" style="fill:#c53f3f;transform-origin:260.43px 234.304px" id="eliwv4ok058cr" class="animable"/><path d="M254 219.9a.49.49 0 0 1-.49-.42.5.5 0 0 1 .4-.58l9-1.6a.5.5 0 0 1 .18 1l-9 1.6Z" style="fill:#fff;opacity:.3;transform-origin:258.504px 218.596px" class="animable" id="eluph15ixzoll"/><path d="M254.16 222a.5.5 0 0 1-.08-1l9-1.6a.49.49 0 0 1 .57.41.5.5 0 0 1-.4.58l-9 1.6Z" style="fill:#fff;opacity:.3;transform-origin:258.638px 220.697px" class="animable" id="elz6gud0unav9"/><path d="M254.3 224.18a.49.49 0 0 1-.49-.42.5.5 0 0 1 .4-.58l9-1.59a.5.5 0 0 1 .58.4.51.51 0 0 1-.41.58l-9 1.6Z" style="fill:#fff;opacity:.3;transform-origin:258.799px 222.881px" class="animable" id="eldvya1o6qs04"/><path d="M290.36 273.83a.49.49 0 0 1-.49-.41c-.29-1.68-1.12-4.66-2.27-8.78-3.65-13.2-10.47-37.75-11.78-64.12a.5.5 0 0 1 1-.05c1.31 26.26 8.1 50.74 11.75 63.9 1.15 4.15 2 7.15 2.28 8.88a.5.5 0 0 1-.4.58Z" style="fill:#fff;opacity:.3;transform-origin:283.339px 236.913px" class="animable" id="el64h6m93dgu9"/><path d="M282.75 208.49c-4.93-2.24-9.65-3.63-9 0a39.59 39.59 0 0 0 12 21.34c-1.27-6.74-2.32-13.92-3-21.34Z" style="opacity:.4;transform-origin:279.72px 218.044px" class="animable" id="elztvgdzgpcik"/><path d="m312.15 196 4.27-6.9-11.8-2.24s-3.47 6.21 2 11Z" style="fill:#ce7a63;transform-origin:309.977px 192.36px" id="el0dh49l1jyks" class="animable"/><path style="fill:#ce7a63;transform-origin:310.52px 186.3px" id="elxixm81or07" class="animable" d="m315.17 183.55-10.06.17-.49 3.09 11.8 2.24-1.25-5.5z"/><path d="M147.73 221.43c-8 0-14.49-14.55-14.49-32.5s6.49-32.49 14.49-32.49h5.43v65Z" style="fill:#c53f3f;transform-origin:143.2px 188.94px" id="el63rme9afb4l" class="animable"/><ellipse cx="153.16" cy="188.93" rx="14.49" ry="32.49" style="fill:#c53f3f;transform-origin:153.16px 188.93px" id="elk1pfliutytn" class="animable"/><ellipse cx="153.16" cy="188.93" rx="14.49" ry="32.49" style="opacity:.2;transform-origin:153.16px 188.93px" class="animable" id="el9nr2p0waowp"/><path d="M156.22 221.43c-8 0-14.49-14.55-14.49-32.5s6.49-32.49 14.49-32.49h5.43v65Z" style="fill:#c53f3f;transform-origin:151.69px 188.94px" id="el7ax4pod1d96" class="animable"/><ellipse cx="161.65" cy="188.93" rx="14.49" ry="32.49" style="fill:#c53f3f;transform-origin:161.65px 188.93px" id="el1afxduyiwr4" class="animable"/><ellipse cx="161.65" cy="188.93" rx="14.49" ry="32.49" style="opacity:.2;transform-origin:161.65px 188.93px" class="animable" id="el2o5fz80bhcx"/><path d="m162.89 189.92 12.67 8.08a67.74 67.74 0 0 0 .57-8.35Z" style="opacity:.2;transform-origin:169.51px 193.825px" class="animable" id="elqhm7y6jyci8"/><path d="M350.93 190.71H163.71a1.78 1.78 0 0 1-1.78-1.78 1.78 1.78 0 0 1 1.78-1.78h187.22a1.79 1.79 0 0 1 1.78 1.78 1.79 1.79 0 0 1-1.78 1.78Z" style="fill:#263238;transform-origin:257.32px 188.93px" id="ely7cg19cerh" class="animable"/><path d="M263.28 191.84a210.9 210.9 0 0 0-23.08 1.82c-.88.14-1.76.31-2.61.48-2.25 4.92.38 12.23 7.46 20.48l2.08 2.42 1.27-2.93c4.53-10.39 10-17.48 15.81-20.5l3.56-1.82c-1.49-.02-3 0-4.49.05Z" style="fill:#fff;opacity:.9;transform-origin:252.288px 204.411px" class="animable" id="eltacgw4h4ual"/><path d="M255.61 167.9c.08 7 1.45 19.75 7.67 23.94-6.49 3.36-12.28 11.16-16.72 21.47-6.63-7.72-9.81-15.38-6.36-19.65 7.87-2.49 6.39-8.17 3.75-13.41Z" style="fill:#ce7a63;transform-origin:251.036px 190.605px" id="el2iu7f6b0kmd" class="animable"/><path d="m250.86 172.94-6.91 7.3a22.85 22.85 0 0 1 1.56 3.74c3.07-.67 6.7-4.23 6.35-7.33a10.43 10.43 0 0 0-1-3.71Z" style="opacity:.2;transform-origin:247.917px 178.46px" class="animable" id="el7rpo22d7hp5"/><path d="M232.2 148.35c-2.69 1.48-4.94 12.18 1.37 16.31s4.63-19.59-1.37-16.31Z" style="fill:#263238;transform-origin:233.537px 156.591px" id="elwa5y4ek4ve" class="animable"/><path d="M258.28 156.84c-.55 9.78-.37 15.53-5.28 20.65-7.39 7.71-19.47 3.51-21.86-6.19-2.14-8.73-.88-23.26 8.66-27.37a13.14 13.14 0 0 1 18.48 12.91Z" style="fill:#ce7a63;transform-origin:244.279px 162.133px" id="elknumcvlfhj" class="animable"/><path d="M233.57 150.29c-8.85-3.55-16-14.28-11.28-20.07 6.24-7.72 13.19 5.11 33.29 9.7 16.26 3.7 10.25 17.86 4.85 23.54-3.46.92-6.69 1.66-6.69 1.66s-3.57-8.46-.06-13.72c-3.79 1.2-14.05 1.32-20.11-1.11Z" style="fill:#263238;transform-origin:243.462px 146.461px" id="ellkh3dq7qnbs" class="animable"/><path d="M220.8 142.28s6.42 8.16 32.88 9.12c-11.68 3.28-26.68 1.32-32.88-9.12Z" style="fill:#263238;transform-origin:237.24px 147.566px" id="elp2lgw91vlc" class="animable"/><path d="M240.78 171.51a.22.22 0 0 1-.19-.24.24.24 0 0 1 .25-.22 6.43 6.43 0 0 0 5.3-2.19.23.23 0 1 1 .37.28 6.84 6.84 0 0 1-5.71 2.38Z" style="fill:#263238;transform-origin:243.573px 170.153px" id="elcf4lo3vmf25" class="animable"/><path d="M262.75 167.51a9.52 9.52 0 0 1-5.78 4.24c-3.18.77-2.75-1.6-1.73-4.53.92-2.65 1.83-6.72 5-6.19s4.08 3.88 2.51 6.48Z" style="fill:#ce7a63;transform-origin:258.997px 166.44px" id="elbzozkhhei0l" class="animable"/><path d="M243.47 159.9c0 .8-.41 1.45-.93 1.46s-.95-.62-.95-1.42.41-1.44.93-1.46.95.63.95 1.42Z" style="fill:#263238;transform-origin:242.53px 159.92px" id="elieu3zz35lb" class="animable"/><path d="M234.23 160.1c0 .8-.41 1.45-.93 1.47s-1-.63-1-1.42.41-1.45.93-1.47 1 .63 1 1.42Z" style="fill:#263238;transform-origin:233.265px 160.125px" id="elmbod7q6s4a" class="animable"/><path d="M237.34 160.44s-1.79 4.62-3.77 6.88c1.42 1.29 3.81.63 3.81.63Z" style="fill:#ba4d3c;transform-origin:235.475px 164.279px" id="elxzn880i9fb" class="animable"/><path d="M247.46 155.76a.45.45 0 0 1-.34-.12 3.63 3.63 0 0 0-3.18-1.07.45.45 0 0 1-.55-.35.48.48 0 0 1 .36-.56 4.56 4.56 0 0 1 4 1.3.47.47 0 0 1 0 .66.45.45 0 0 1-.29.14Z" style="fill:#263238;transform-origin:245.633px 154.68px" id="elvnx3ypoami" class="animable"/><path d="M234 155.5a.4.4 0 0 1 0 .15.45.45 0 0 1-.46.47 4.76 4.76 0 0 1-3.9-1.81.45.45 0 0 1 .12-.64.47.47 0 0 1 .65.12 3.82 3.82 0 0 0 3.11 1.4.49.49 0 0 1 .48.31Z" style="fill:#263238;transform-origin:231.781px 154.856px" id="el3y1y95temug" class="animable"/><path d="M313.7 204.36a64.66 64.66 0 0 0-1.65-8.61 3.6 3.6 0 0 0-7.07.74v.15a101.44 101.44 0 0 1-1.62 15.47 25.94 25.94 0 0 1-.91 3.29 11.4 11.4 0 0 1-.83 1.8l-.16-.08a21.64 21.64 0 0 1-5.05-3.21 59 59 0 0 1-5.21-5c-1.69-1.84-3.36-3.77-5-5.78-.8-1-1.58-2-2.37-3l-1.15-1.54-1.07-1.46-.17-.24a7.2 7.2 0 0 0-11.84 8.19c.49.75.87 1.31 1.3 1.94s.86 1.21 1.3 1.81c.87 1.19 1.79 2.34 2.72 3.49a83.17 83.17 0 0 0 6 6.62c1.09 1.06 2.21 2.1 3.39 3.11s2.45 2 3.77 2.91a31 31 0 0 0 9.44 4.66 12.53 12.53 0 0 0 8.25-.26 11.27 11.27 0 0 0 3.78-2.59 13.26 13.26 0 0 0 2.17-3 18.66 18.66 0 0 0 1.82-5.47 34.2 34.2 0 0 0 .54-4.87 55.33 55.33 0 0 0-.38-9.07Z" style="fill:#ce7a63;transform-origin:291.267px 211.642px" id="elqqqvbqmzhpm" class="animable"/><path d="m260 275.63-16.45 1.2s-57.66 13.38-55.44 43.76c1.49 20.4 10.16 53.4 16.11 74.23h13.5c-.81-20.83.65-52.82-5-73.67 8.74-1.61 38.76-12.34 49.36-15.88a27.3 27.3 0 0 0-2.08-29.64Z" style="fill:#263238;transform-origin:226.77px 335.225px" id="eli21p0oou05h" class="animable"/><path d="M240.87 294.31c-11.35 8.62-12.92 19.45-11.35 22 5-1.62 10.38-3.45 15.45-5.19.03-6.07.56-20.34-4.1-16.81Z" style="opacity:.4;transform-origin:237.005px 305.033px" class="animable" id="el17jywor4nsq"/><path d="M281.74 274.05 260 275.63l21.74-1.57Z" style="fill:#263238;transform-origin:270.87px 274.84px" id="elq2rs2g0n3u" class="animable"/><path d="M296.18 273 260 275.63s-27 20.86-26.11 31a40.82 40.82 0 0 0 2.49 11.73c7.27 19.34 21.78 54.54 30.64 76.44h13.73c-4.07-22.49-8.48-58.65-17.46-75 9.5-4.24 22.49-9.6 31.44-16.43 10.04-7.61 1.45-30.37 1.45-30.37Z" style="fill:#263238;transform-origin:266.735px 333.9px" id="el7m7iq3p5u1d" class="animable"/><path d="m209.93 414 8.44.15s-.21-7.84-.65-19.35h-13.5c3.26 11.45 5.71 19.2 5.71 19.2Z" style="fill:#ce7a63;transform-origin:211.295px 404.475px" id="eltbj0yxnodn" class="animable"/><path d="m207.82 407.7 11 .08a.83.83 0 0 1 .82.7l1.37 9a1.58 1.58 0 0 1-1.58 1.79c-4-.1-9.73-.38-14.73-.42-5.86 0-5.71.24-12.58.19-4.15 0-5-4.25-3.25-4.61 8-1.67 9.28-1.81 16.42-6a4.79 4.79 0 0 1 2.53-.73Z" style="fill:#263238;transform-origin:204.518px 413.485px" id="elatk4k9hxuni" class="animable"/><path d="m274.79 414 9.3.15s-1.28-7.91-3.34-19.35H267c4.63 11.43 7.79 19.2 7.79 19.2Z" style="fill:#ce7a63;transform-origin:275.545px 404.475px" id="elqs780yp5u9" class="animable"/><path d="m272.66 407.7 11 .08a.9.9 0 0 1 .86.7l1.93 9a1.47 1.47 0 0 1-1.47 1.79c-4-.1-9.75-.38-14.76-.42-5.86 0-1.08.24-7.95.19-4.15 0-5.26-4.18-3.53-4.61 6.47-1.64 8.81-3.32 11.43-6a3.3 3.3 0 0 1 2.49-.73Z" style="fill:#263238;transform-origin:272.22px 413.474px" id="elvkqq0tafga" class="animable"/><path d="M353 221.43c-8 0-14.49-14.55-14.49-32.5S345 156.44 353 156.44h5.43v65Z" style="fill:#c53f3f;transform-origin:348.47px 188.94px" id="el384weyu1pr3" class="animable"/><path d="M353 221.43c-8 0-14.49-14.55-14.49-32.5S345 156.44 353 156.44h5.43v65Z" style="opacity:.2;transform-origin:348.47px 188.94px" class="animable" id="elgvtzebl0fjb"/><ellipse cx="358.43" cy="188.93" rx="14.49" ry="32.49" style="fill:#c53f3f;transform-origin:358.43px 188.93px" id="elixakuj95l1" class="animable"/><path d="M361.49 221.43c-8 0-14.49-14.55-14.49-32.5s6.49-32.49 14.49-32.49h5.43v65Z" style="fill:#c53f3f;transform-origin:356.96px 188.94px" id="elw94z397airr" class="animable"/><path d="M361.49 221.43c-8 0-14.49-14.55-14.49-32.5s6.49-32.49 14.49-32.49h5.43v65Z" style="opacity:.2;transform-origin:356.96px 188.94px" class="animable" id="el7qeyu1vxcyg"/><path d="M382.63 175.19c-1.32-6.71-3.59-12.25-6.56-16l.78-.62c3.08 3.9 5.41 9.59 6.77 16.46Z" style="fill:#c53f3f;transform-origin:379.845px 166.88px" id="elqgnvf6sb3lh" class="animable"/><path d="M384.91 188.93h-1a76.15 76.15 0 0 0-.41-7.94l1-.11a75.54 75.54 0 0 1 .41 8.05Z" style="fill:#c53f3f;transform-origin:384.205px 184.905px" id="el47wby79ac6u" class="animable"/><ellipse cx="366.92" cy="188.93" rx="14.49" ry="32.49" style="fill:#c53f3f;transform-origin:366.92px 188.93px" id="elg6hvexu8two" class="animable"/><path d="M368.61 206.68c-4.37 0-7.92-8-7.92-17.75s3.55-17.74 7.92-17.74h3v35.49Z" style="fill:#c53f3f;transform-origin:366.15px 188.935px" id="el8jiid6cw3k6" class="animable"/><path d="M371.57 206.68h-3c-4.36 0-7.91-8-7.91-17.74s3.55-17.75 7.91-17.75h3c-4.37 0-7.91 7.94-7.91 17.75s3.54 17.74 7.91 17.74Z" style="opacity:.2;transform-origin:366.115px 188.935px" class="animable" id="eljja6yo7xvah"/><ellipse cx="371.57" cy="188.93" rx="7.91" ry="17.74" style="fill:#fff;opacity:.1;transform-origin:371.57px 188.93px" class="animable" id="elqiu8iwg8n8b"/></g><g id="freepik--Dumbbell--inject-18" class="animable animator-active" style="transform-origin:373.895px 368.62px;animation:1.5s Infinite linear floating;animation-delay:0s"><path style="fill:#263238;transform-origin:414.44px 368.62px" id="elqd8o8rcq5" class="animable" d="m425.66 321-27.49 95.24h5.05L430.71 321h-5.05z"/><path style="fill:#263238;transform-origin:358.11px 368.62px" id="elpjlu5kig6c9" class="animable" d="M341.84 416.24h5.05L374.38 321h-5.06l-27.48 95.24z"/><path d="M337.32 408.08a20.24 20.24 0 0 1 0-40.48h3.08v40.48Z" style="fill:#c53f3f;transform-origin:328.74px 387.84px" id="elp6e38ulkht" class="animable"/><path d="M337.32 408.08a20.24 20.24 0 0 1 0-40.48h3.08v40.48Z" style="opacity:.2;transform-origin:328.74px 387.84px" class="animable" id="el1m3m4ymzfkf"/><circle cx="340.4" cy="387.84" r="20.24" style="fill:#c53f3f;transform-origin:340.4px 387.84px" id="elkjmqknh3b4b" class="animable"/><path d="M337.32 367.6h3.08a20.24 20.24 0 1 1 0 40.48h-3.08a20.24 20.24 0 0 1 0-40.48Z" style="opacity:.1;transform-origin:338.86px 387.84px" class="animable" id="elf5ey8lgtjwb"/><path d="M342.63 408.08a20.24 20.24 0 0 1 0-40.48h3.08v40.48Z" style="fill:#c53f3f;transform-origin:334.05px 387.84px" id="ele87s8rbwlqj" class="animable"/><path d="M342.63 408.08a20.24 20.24 0 0 1 0-40.48h3.08v40.48Z" style="opacity:.2;transform-origin:334.05px 387.84px" class="animable" id="elx53b5lh655"/><circle cx="345.71" cy="387.84" r="20.24" style="fill:#c53f3f;transform-origin:345.71px 387.84px" id="el3eb5wgtcoih" class="animable"/><path d="M342.63 367.6h3.08a20.24 20.24 0 1 1 0 40.48h-3.08a20.24 20.24 0 0 1 0-40.48Z" style="opacity:.1;transform-origin:344.17px 387.84px" class="animable" id="el27cxsrdwfie"/><path d="M348.9 392.57h34.6a.75.75 0 0 0 .75-.76v-7.94a.75.75 0 0 0-.75-.76h-34.6a4.73 4.73 0 0 0-4.73 4.73 4.73 4.73 0 0 0 4.73 4.73Z" style="fill:#263238;transform-origin:364.21px 387.84px" id="elqy3jcnk1ezb" class="animable"/><path d="M389.42 408.08a20.24 20.24 0 0 1 0-40.48h3.08v40.48Z" style="fill:#c53f3f;transform-origin:380.84px 387.84px" id="el8nhltmrbpok" class="animable"/><path d="M389.42 408.08a20.24 20.24 0 0 1 0-40.48h3.08v40.48Z" style="opacity:.2;transform-origin:380.84px 387.84px" class="animable" id="elczg2niwwcba"/><circle cx="392.5" cy="387.84" r="20.24" style="fill:#c53f3f;transform-origin:392.5px 387.84px" id="elci3xs5zuus5" class="animable"/><path d="M394.72 408.08a20.24 20.24 0 0 1 0-40.48h3.08v40.48Z" style="fill:#c53f3f;transform-origin:386.14px 387.84px" id="el3fy1li897xo" class="animable"/><path d="M394.72 408.08a20.24 20.24 0 0 1 0-40.48h3.08v40.48Z" style="opacity:.2;transform-origin:386.14px 387.84px" class="animable" id="elv9ywdvv3xz"/><circle cx="397.8" cy="387.84" r="20.24" style="fill:#c53f3f;transform-origin:397.8px 387.84px" id="elc1pxwap0b1k" class="animable"/><path d="M396.39 398.38a10.54 10.54 0 1 1 0-21.08h2.83v21.08Z" style="opacity:.2;transform-origin:392.535px 387.84px" class="animable" id="elqttwmg8yr1l"/><circle cx="399.22" cy="387.84" r="10.54" style="fill:#c53f3f;transform-origin:399.22px 387.84px" id="elbdot00sypzj" class="animable"/><path d="M356.14 362.09a17.94 17.94 0 1 1 0-35.87h2.73v35.87Z" style="fill:#c53f3f;transform-origin:348.323px 344.155px" id="elbvxanlvij6" class="animable"/><path d="M356.14 362.09a17.94 17.94 0 1 1 0-35.87h2.73v35.87Z" style="opacity:.2;transform-origin:348.323px 344.155px" class="animable" id="el1x36so4wgvj"/><circle cx="358.87" cy="344.16" r="17.93" style="fill:#c53f3f;transform-origin:358.87px 344.16px;transform:rotate(-89.14deg)" class="animable" id="el7v9j55087pu"/><path d="M356.14 326.22h2.73a17.94 17.94 0 0 1 0 35.87h-2.73a17.94 17.94 0 1 1 0-35.87Z" style="opacity:.1;transform-origin:357.081px 344.155px" class="animable" id="eljvzwqj64p58"/><path d="M360.84 362.09a17.94 17.94 0 0 1 0-35.87h2.73v35.87Z" style="fill:#c53f3f;transform-origin:353.447px 344.155px" id="eled5nproe21p" class="animable"/><path d="M360.84 362.09a17.94 17.94 0 0 1 0-35.87h2.73v35.87Z" style="opacity:.2;transform-origin:353.447px 344.155px" class="animable" id="el8jtoivbd695"/><circle cx="363.57" cy="344.16" r="17.93" style="fill:#c53f3f;transform-origin:363.57px 344.16px;transform:rotate(-89.14deg)" class="animable" id="el2vg1o5i72t"/><path d="M360.84 326.22h2.73a17.94 17.94 0 1 1 0 35.87h-2.73a17.94 17.94 0 0 1 0-35.87Z" style="opacity:.1;transform-origin:362.629px 344.155px" class="animable" id="elh6m9x0lc7fp"/><path d="M362.87 340h30.69a4.16 4.16 0 0 1 4.16 4.16 4.16 4.16 0 0 1-4.16 4.16h-30.69a.66.66 0 0 1-.66-.66v-7a.66.66 0 0 1 .66-.66Z" style="fill:#263238;transform-origin:379.965px 344.16px;transform:rotate(-180deg)" class="animable" id="elz5swrxwzgtb"/><path d="M402.3 362.09a17.94 17.94 0 1 1 0-35.87h2.7v35.87Z" style="fill:#c53f3f;transform-origin:394.468px 344.155px" id="el6dewkbvk36d" class="animable"/><path d="M402.3 362.09a17.94 17.94 0 1 1 0-35.87h2.7v35.87Z" style="opacity:.2;transform-origin:394.468px 344.155px" class="animable" id="elxejf9yfjqcf"/><circle cx="405.03" cy="344.16" r="17.93" style="fill:#c53f3f;transform-origin:405.03px 344.16px" id="el6obph6pntxt" class="animable"/><path d="M407 362.09a17.94 17.94 0 0 1 0-35.87h2.73v35.87Z" style="fill:#c53f3f;transform-origin:399.607px 344.155px" id="elfcvt3pek0h" class="animable"/><path d="M407 362.09a17.94 17.94 0 0 1 0-35.87h2.73v35.87Z" style="opacity:.2;transform-origin:399.607px 344.155px" class="animable" id="eloy9azzulcc"/><circle cx="409.72" cy="344.16" r="17.93" style="fill:#c53f3f;transform-origin:409.72px 344.16px" id="elqxvf62id2t" class="animable"/><path d="M408.47 353.49a9.34 9.34 0 1 1 0-18.67H411v18.67Z" style="opacity:.2;transform-origin:404.912px 344.155px" class="animable" id="elq0jbay8s0gq"/><circle cx="410.98" cy="344.16" r="9.34" style="fill:#c53f3f;transform-origin:410.98px 344.16px;transform:rotate(-1.14576deg)" class="animable" id="el93lw4osjgjq"/></g><g id="freepik--Bottle--inject-18" class="animable" style="transform-origin:133.04px 385.245px"><path d="M146.37 372.2c0-6.55-6-11.87-13.33-11.87s-13.33 5.32-13.33 11.87a11 11 0 0 0 2.72 7.18 3.68 3.68 0 0 1-1.08 5.6 3.15 3.15 0 0 0-1.64 2.77v26.46a2.68 2.68 0 0 0 2.68 2.68h21.3a2.68 2.68 0 0 0 2.68-2.68v-26.46a3.14 3.14 0 0 0-1.65-2.77 3.68 3.68 0 0 1-1.08-5.6 11 11 0 0 0 2.73-7.18Z" style="fill:#c53f3f;transform-origin:133.04px 388.61px" id="elg4v5ry10j8g" class="animable"/><path d="M146.37 372.2c0-6.55-6-11.87-13.33-11.87s-13.33 5.32-13.33 11.87a11 11 0 0 0 2.72 7.18 3.68 3.68 0 0 1-1.08 5.6 3.15 3.15 0 0 0-1.64 2.77v26.46a2.68 2.68 0 0 0 2.68 2.68h21.3a2.68 2.68 0 0 0 2.68-2.68v-26.46a3.14 3.14 0 0 0-1.65-2.77 3.68 3.68 0 0 1-1.08-5.6 11 11 0 0 0 2.73-7.18Z" style="fill:#fff;opacity:.2;transform-origin:133.04px 388.61px" class="animable" id="elcaagzkuzqlq"/><path d="M138.61 362.62h-11.15a2.29 2.29 0 0 1-2.28-2.29 2.29 2.29 0 0 1 2.28-2.28h11.15a2.29 2.29 0 0 1 2.29 2.28 2.3 2.3 0 0 1-2.29 2.29Z" style="fill:#263238;transform-origin:133.04px 360.335px" id="el62io0y3gfkm" class="animable"/><rect x="129.42" y="353.6" width="7.24" height="6.73" rx="1.44" style="fill:#263238;transform-origin:133.04px 356.965px" id="el4gc78zywv83" class="animable"/></g><defs><filter id="active" height="200%"><feMorphology in="SourceAlpha" result="DILATED" operator="dilate" radius="2"/><feFlood flood-color="#32DFEC" flood-opacity="1" result="PINK"/><feComposite in="PINK" in2="DILATED" operator="in" result="OUTLINE"/><feMerge><feMergeNode in="OUTLINE"/><feMergeNode in="SourceGraphic"/></feMerge></filter><filter id="hover" height="200%"><feMorphology in="SourceAlpha" result="DILATED" operator="dilate" radius="2"/><feFlood flood-color="red" flood-opacity=".5" result="PINK"/><feComposite in="PINK" in2="DILATED" operator="in" result="OUTLINE"/><feMerge><feMergeNode in="OUTLINE"/><feMergeNode in="SourceGraphic"/></feMerge><feColorMatrix values="0 0 0 0 0 0 1 0 0 0 0 0 0 0 0 0 0 0 1 0"/></filter></defs></svg>